<?xml version="1.0" encoding="UTF-8"?>
<!DOCTYPE svg PUBLIC "-//W3C//DTD SVG 1.1//EN" "http://www.w3.org/Graphics/SVG/1.1/DTD/svg11.dtd">
<!-- Creator: CorelDRAW (Versão OEM) -->
<svg xmlns="http://www.w3.org/2000/svg" xml:space="preserve" width="2599px" height="275px" version="1.1" shape-rendering="geometricPrecision" text-rendering="geometricPrecision" image-rendering="optimizeQuality" fill-rule="evenodd" clip-rule="evenodd"
viewBox="0 0 2142.07 226.34"
 xmlns:xlink="http://www.w3.org/1999/xlink"
 xmlns:xodm="http://www.corel.com/coreldraw/odm/2003">
 <g id="Camada_x0020_1">
  <metadata id="CorelCorpID_0Corel-Layer"/>
  <path fill="none" stroke="#373435" stroke-width="0.74" stroke-linejoin="bevel" stroke-miterlimit="22.9256" d="M98.83 26.79l0 -4.58 -0.42 -3.97 -0.03 -0.11 -0.02 -0.14 -1.29 -3.82 -1.18 -2.21 -1.15 -1.7 -0.2 -0.27 -0.2 -0.21 -1.12 -1.33 -1.74 -1.68 -1.93 -1.51 -0.05 -0.04 -0.06 -0.05 -1.97 -1.24 -0.14 -0.08 -1.5 -0.75 -0.57 -0.29 -0.04 -0.02 -0.05 -0.02 -2.2 -0.87 -2.29 -0.67 -0.01 -0.01 -0.03 -0.01 -0.64 -0.12 -1.63 -0.34 -2.32 -0.29 -2.32 -0.09 -48.26 0 -2.32 0.09 -2.24 0.28 -0.01 0 0 0 -0.07 0.01 -1.64 0.34 -0.63 0.12 -0.02 0.01 -0.02 0.01 -2.29 0.67 -2.19 0.87 -0.05 0.02 -0.05 0.02 -0.61 0.31 -1.46 0.73 -0.13 0.08 -1.98 1.24 -0.07 0.06 -0.04 0.03 -1.93 1.51 -1.57 1.5 -0.07 0.08 -0.09 0.1 -0.59 0.69 -0.74 0.86 -0.2 0.26 -1.15 1.7 -1.18 2.21 -0.73 1.85 -0.56 1.98 -0.03 0.17 -0.02 0.07 -0.02 0.17 -0.28 1.66 -0.12 2.14 0 181.92 0.42 3.98 0.04 0.11 0.01 0.13 1.29 3.82 1.18 2.22 1.15 1.69 0.2 0.27 0.2 0.21 1.13 1.34 1.73 1.67 1.93 1.52 0.06 0.03 0.05 0.05 1.98 1.24 0.13 0.08 1.55 0.78 0.52 0.26 0.04 0.02 0.05 0.02 2.2 0.87 2.29 0.68 0.02 0 0.02 0.01 0.64 0.13 1.63 0.34 2.32 0.28 2.32 0.09 48.26 0 2.32 -0.09 2.24 -0.27 0.01 0 0.01 -0.01 0.06 0 1.64 -0.34 0.63 -0.13 0.02 -0.01 0.02 0 2.29 -0.68 2.2 -0.87 0.04 -0.02 0.05 -0.02 0.58 -0.29 1.49 -0.75 0.14 -0.08 1.97 -1.24 0.07 -0.06 0.04 -0.02 1.93 -1.52 1.57 -1.5 0.07 -0.07 0.1 -0.1 0.61 -0.73 0.71 -0.82 0.2 -0.27 1.15 -1.69 1.18 -2.22 0.73 -1.85 0.56 -1.97 0.03 -0.17 0.02 -0.07 0.02 -0.18 0.28 -1.66 0.12 -2.14 0 -4.62 0.74 -3.8 0.06 -0.21 2.39 -3.59 3.63 -2.36 0.21 -0.07 3.85 -0.72 116.54 0 115.36 0 350.8 0 116.36 0 496.38 0 65.77 0 460.45 0 116.48 0 146.63 0 4.44 -0.18 3.95 -0.5 0.2 -0.01 0.11 -0.03 0.14 -0.01 2.7 -0.57 1.45 -0.3 0.07 -0.02 0.11 -0.02 4.21 -1.26 4.3 -1.72 0.05 -0.02 0.03 -0.02 4.08 -2.08 0.08 -0.05 2.32 -1.49 1.52 -0.97 0.02 -0.01 0.03 -0.03 3.58 -2.82 3.23 -3.14 0.02 -0.03 0.02 -0.01 1.07 -1.28 1.73 -2.08 0.06 -0.07 2.38 -3.57 2 -3.84 2.48 -7.47 0.02 -0.12 0.03 -0.11 0.79 -7.52 0 -68.47 -0.79 -7.53 -0.04 -0.1 -0.01 -0.12 -2.48 -7.48 -2 -3.84 -2.38 -3.56 -0.06 -0.08 -1.74 -2.08 -1.06 -1.28 -0.02 -0.01 -0.02 -0.03 -3.23 -3.14 -3.58 -2.82 -0.04 -0.03 -0.01 -0.01 -1.29 -0.82 -2.55 -1.63 -0.08 -0.06 -4.08 -2.08 -0.03 -0.01 -0.05 -0.03 -4.3 -1.72 -4.21 -1.26 -0.12 -0.02 -0.06 -0.02 -1.27 -0.26 -2.88 -0.6 -0.14 -0.02 -0.11 -0.02 -0.2 -0.02 -3.95 -0.49 -4.44 -0.19 -1984.77 0 -3.99 -0.75 -0.02 -0.01 -3.68 -2.38 -2.42 -3.64 -0.01 -0.02 -0.76 -3.94 0 -0.04 0 -0.01 0 0 0 0zm504.04 85.4c0,-6.7 5.43,-12.12 12.12,-12.12 6.7,0 12.13,5.42 12.13,12.12 0,6.69 -5.43,12.12 -12.13,12.12 -6.69,0 -12.12,-5.43 -12.12,-12.12zm-72.73 0c0,-6.7 5.43,-12.13 12.12,-12.13 6.7,0 12.13,5.43 12.13,12.13 0,6.69 -5.43,12.12 -12.13,12.12 -6.69,0 -12.12,-5.43 -12.12,-12.12zm-363.65 0c0,-6.7 5.43,-12.12 12.13,-12.12 6.69,0 12.12,5.42 12.12,12.12 0,6.69 -5.43,12.12 -12.12,12.12 -6.7,0 -12.13,-5.43 -12.13,-12.12zm72.73 0c0,-6.7 5.43,-12.13 12.12,-12.13 6.7,0 12.13,5.43 12.13,12.13 0,6.69 -5.43,12.12 -12.12,12.12 -6.7,0 -12.13,-5.43 -12.13,-12.12zm72.73 0c0,-6.7 5.43,-12.12 12.12,-12.12 6.7,0 12.13,5.42 12.13,12.12 0,6.69 -5.43,12.12 -12.13,12.12 -6.69,0 -12.12,-5.43 -12.12,-12.12zm72.73 0c0,-6.7 5.43,-12.13 12.12,-12.13 6.7,0 12.13,5.43 12.13,12.13 0,6.69 -5.43,12.12 -12.13,12.12 -6.69,0 -12.12,-5.43 -12.12,-12.12zm72.73 0c0,-6.7 5.43,-12.12 12.12,-12.12 6.7,0 12.13,5.42 12.13,12.12 0,6.69 -5.43,12.12 -12.13,12.12 -6.69,0 -12.12,-5.43 -12.12,-12.12zm-394.31 -8.88l0 88.76 -31.53 0 0 -157.79 15.76 0 3.94 0 11.83 0 0 69.03z"/>
  <g id="_2603182613232">
   <path fill="none" stroke="#727376" stroke-width="2.92" stroke-linejoin="bevel" stroke-miterlimit="22.9256" d="M2110.5 113.17c0,-32.25 -26.15,-58.4 -58.4,-58.4 -32.25,0 -58.4,26.15 -58.4,58.4 0,32.25 26.15,58.4 58.4,58.4 32.25,0 58.4,-26.14 58.4,-58.4z"/>
   <path fill="none" stroke="#727376" stroke-width="2.92" stroke-linejoin="bevel" stroke-miterlimit="22.9256" d="M2066.7 113.17c0,-8.06 -6.54,-14.6 -14.6,-14.6 -8.06,0 -14.6,6.54 -14.6,14.6 0,8.06 6.54,14.6 14.6,14.6 8.06,0 14.6,-6.53 14.6,-14.6z"/>
  </g>
  <rect fill="none" stroke="#FFCC29" stroke-width="0.74" stroke-miterlimit="22.9256" x="712.83" y="37.58" width="703.05" height="151.17"/>
 </g>
</svg>
