<?xml version="1.0" encoding="UTF-8"?>
<!DOCTYPE svg PUBLIC "-//W3C//DTD SVG 1.1//EN" "http://www.w3.org/Graphics/SVG/1.1/DTD/svg11.dtd">
<!-- Creator: CorelDRAW (Versão OEM) -->
<svg xmlns="http://www.w3.org/2000/svg" xml:space="preserve" width="2979px" height="274px" version="1.1" shape-rendering="geometricPrecision" text-rendering="geometricPrecision" image-rendering="optimizeQuality" fill-rule="evenodd" clip-rule="evenodd"
viewBox="0 0 2695.9 248.25"
 xmlns:xlink="http://www.w3.org/1999/xlink"
 xmlns:xodm="http://www.corel.com/coreldraw/odm/2003">
 <g id="Camada_x0020_1">
  <metadata id="CorelCorpID_0Corel-Layer"/>
  <path fill="#4B4B4D" stroke="#373435" stroke-width="2.14" stroke-miterlimit="22.9256" d="M1.07 124.13l0 99.23 0.01 0.53 0.02 0.53 0.04 0.54 0.06 0.54 0.07 0.54 0.09 0.55 0.11 0.55 0.13 0.55 0.15 0.56 0.16 0.55 0.19 0.56 0.2 0.55 0.22 0.56 0.25 0.55 0.26 0.56 0.28 0.55 0.3 0.55 0.33 0.54 0.34 0.54 0.36 0.54 0.38 0.53 0.4 0.53 0.42 0.52 0.44 0.52 0.45 0.5 0.48 0.5 0.49 0.49 0.51 0.48 0.53 0.48 0.55 0.46 0.56 0.45 0.58 0.44 0.59 0.44 0.61 0.41 0.62 0.41 0.63 0.4 0.65 0.38 0.66 0.36 0.67 0.36 0.68 0.34 0.68 0.33 0.7 0.31 0.71 0.3 0.71 0.28 0.72 0.27 0.73 0.26 0.73 0.24 0.74 0.22 0.74 0.21 0.74 0.2 0.74 0.18 0.75 0.16 0.74 0.16 0.75 0.13 0.74 0.13 0.74 0.11 0.75 0.09 0.73 0.08 0.74 0.07 0.73 0.06 0.72 0.04 0.72 0.03 0.72 0.02 0.71 0 61.43 0 0.71 0 0.72 -0.02 0.72 -0.03 0.72 -0.04 0.73 -0.06 0.74 -0.07 0.73 -0.08 0.74 -0.09 0.75 -0.11 0.74 -0.13 0.75 -0.13 0.74 -0.16 0.75 -0.16 0.74 -0.18 0.74 -0.2 0.74 -0.21 0.74 -0.22 0.73 -0.24 0.72 -0.26 0.73 -0.27 0.71 -0.28 0.71 -0.3 0.69 -0.31 0.69 -0.33 0.68 -0.34 0.67 -0.36 0.66 -0.36 0.65 -0.38 0.63 -0.4 0.62 -0.41 0.61 -0.41 0.59 -0.44 0.58 -0.44 0.56 -0.45 0.55 -0.46 0.53 -0.48 0.51 -0.48 0.49 -0.49 0.48 -0.5 0.45 -0.5 0.44 -0.52 0.42 -0.52 0.4 -0.53 0.38 -0.53 0.36 -0.54 0.34 -0.54 0.33 -0.54 0.3 -0.55 0.28 -0.55 0.26 -0.56 0.25 -0.55 0.22 -0.56 0.2 -0.55 0.19 -0.56 0.16 -0.55 0.15 -0.56 0.13 -0.55 0.11 -0.55 0.09 -0.55 0.07 -0.54 0.06 -0.54 0.04 -0.54 0.02 -0.53 0.01 -0.53 0 -5.04c0,-3.11 1.46,-6.1 4.05,-8.3 2.59,-2.19 6.13,-3.43 9.8,-3.43l2501.33 0c14.13,-0.01 27.68,-4.77 37.67,-13.24 9.99,-8.47 15.59,-19.9 15.58,-31.87l0 -37.35 0 -37.35c-0.01,-11.98 -5.63,-23.45 -15.63,-31.91 -10,-8.46 -23.49,-13.21 -37.62,-13.2l-2501.33 0c-3.67,0 -7.19,-1.23 -9.79,-3.43 -2.6,-2.2 -4.06,-5.19 -4.06,-8.3l0 -5.04 -0.01 -0.53 -0.02 -0.54 -0.04 -0.53 -0.06 -0.55 -0.07 -0.54 -0.09 -0.55 -0.11 -0.55 -0.13 -0.55 -0.15 -0.55 -0.16 -0.56 -0.19 -0.55 -0.2 -0.56 -0.22 -0.56 -0.25 -0.55 -0.26 -0.55 -0.28 -0.55 -0.3 -0.55 -0.33 -0.55 -0.34 -0.54 -0.36 -0.54 -0.38 -0.53 -0.4 -0.53 -0.42 -0.52 -0.44 -0.51 -0.45 -0.51 -0.48 -0.5 -0.49 -0.49 -0.51 -0.48 -0.53 -0.47 -0.55 -0.47 -0.56 -0.45 -0.58 -0.44 -0.59 -0.43 -0.61 -0.42 -0.62 -0.41 -0.63 -0.39 -0.65 -0.38 -0.66 -0.37 -0.67 -0.36 -0.68 -0.34 -0.69 -0.32 -0.69 -0.32 -0.71 -0.3 -0.71 -0.28 -0.73 -0.27 -0.72 -0.25 -0.73 -0.24 -0.74 -0.23 -0.74 -0.21 -0.74 -0.19 -0.74 -0.18 -0.75 -0.17 -0.74 -0.15 -0.75 -0.14 -0.74 -0.12 -0.75 -0.11 -0.74 -0.1 -0.73 -0.08 -0.74 -0.07 -0.73 -0.05 -0.72 -0.05 -0.72 -0.03 -0.72 -0.01 -0.71 -0.01 -61.43 0 -0.71 0.01 -0.72 0.01 -0.72 0.03 -0.72 0.05 -0.73 0.05 -0.74 0.07 -0.73 0.08 -0.75 0.1 -0.74 0.11 -0.74 0.12 -0.75 0.14 -0.74 0.15 -0.75 0.17 -0.74 0.18 -0.74 0.19 -0.74 0.21 -0.74 0.23 -0.73 0.24 -0.73 0.25 -0.72 0.27 -0.71 0.28 -0.71 0.3 -0.7 0.32 -0.68 0.32 -0.68 0.34 -0.67 0.36 -0.66 0.37 -0.65 0.38 -0.63 0.39 -0.62 0.41 -0.61 0.42 -0.59 0.43 -0.58 0.44 -0.56 0.45 -0.55 0.47 -0.53 0.47 -0.51 0.48 -0.49 0.49 -0.48 0.5 -0.45 0.51 -0.44 0.51 -0.42 0.52 -0.4 0.53 -0.38 0.53 -0.36 0.54 -0.34 0.54 -0.33 0.55 -0.3 0.55 -0.28 0.55 -0.26 0.55 -0.25 0.55 -0.22 0.56 -0.2 0.56 -0.19 0.55 -0.16 0.56 -0.15 0.55 -0.13 0.55 -0.11 0.55 -0.09 0.55 -0.07 0.54 -0.06 0.55 -0.04 0.53 -0.02 0.54 -0.01 0.53 0 99.23zm498.99 -0.01c0,7.39 -5.96,13.38 -13.31,13.38 -7.35,0 -13.31,-5.99 -13.31,-13.38 0,-7.38 5.96,-13.37 13.31,-13.37 7.35,0 13.31,5.99 13.31,13.37zm-79.87 0c0,7.39 -5.96,13.38 -13.32,13.38 -7.35,0 -13.31,-5.99 -13.31,-13.38 0,-7.38 5.96,-13.37 13.31,-13.37 7.36,0 13.32,5.99 13.32,13.37zm-79.88 0c0,7.39 -5.96,13.38 -13.31,13.38 -7.35,0 -13.31,-5.99 -13.31,-13.38 0,-7.38 5.96,-13.37 13.31,-13.37 7.35,0 13.31,5.99 13.31,13.37zm-79.87 0c0,7.39 -5.96,13.38 -13.32,13.38 -7.35,0 -13.31,-5.99 -13.31,-13.38 0,-7.38 5.96,-13.37 13.31,-13.37 7.36,0 13.32,5.99 13.32,13.37zm-79.88 0c0,7.39 -5.96,13.38 -13.31,13.38 -7.35,0 -13.31,-5.99 -13.31,-13.38 0,-7.38 5.96,-13.37 13.31,-13.37 7.35,0 13.31,5.99 13.31,13.37zm399.38 0c0,7.39 -5.97,13.38 -13.32,13.38 -7.35,0 -13.31,-5.99 -13.31,-13.38 0,-7.38 5.96,-13.37 13.31,-13.37 7.35,0 13.32,5.99 13.32,13.37zm79.87 0c0,7.39 -5.96,13.38 -13.31,13.38 -7.35,0 -13.31,-5.99 -13.31,-13.38 0,-7.38 5.96,-13.37 13.31,-13.37 7.35,0 13.31,5.99 13.31,13.37zm-616.14 0l0 -85.6 40.13 0 0 85.6 0 85.61 -40.13 0 0 -85.61zm696.01 0c0,7.39 -5.96,13.38 -13.31,13.38 -7.35,0 -13.31,-5.99 -13.31,-13.38 0,-7.38 5.96,-13.37 13.31,-13.37 7.35,0 13.31,5.99 13.31,13.37zm79.88 0c0,7.39 -5.96,13.38 -13.31,13.38 -7.35,0 -13.32,-5.99 -13.32,-13.38 0,-7.38 5.97,-13.37 13.32,-13.37 7.35,0 13.31,5.99 13.31,13.37z"/>
  <path fill="#4B4B4D" stroke="#727376" stroke-width="0.81" stroke-miterlimit="22.9256" d="M2535.08 124.13c0,35.46 28.61,64.2 63.9,64.2 35.29,0 63.9,-28.74 63.9,-64.2 0,-35.46 -28.61,-64.21 -63.9,-64.21 -35.29,0 -63.9,28.75 -63.9,64.21z"/>
  <path fill="#4B4B4D" stroke="#727376" stroke-width="0.81" stroke-miterlimit="22.9256" d="M2583.01 124.12c0,8.87 7.15,16.06 15.97,16.06 8.82,0 15.98,-7.19 15.98,-16.06 0,-8.86 -7.16,-16.05 -15.98,-16.05 -8.82,0 -15.97,7.19 -15.97,16.05z"/>
  <polygon fill="#4B4B4D" stroke="#F06792" stroke-width="0.81" stroke-miterlimit="22.9256" points="943.02,41.67 1735.11,41.67 1735.11,206.59 943.02,206.59 "/>
 </g>
</svg>
