<?xml version="1.0" encoding="UTF-8"?>
<!DOCTYPE svg PUBLIC "-//W3C//DTD SVG 1.1//EN" "http://www.w3.org/Graphics/SVG/1.1/DTD/svg11.dtd">
<!-- Creator: CorelDRAW (Versão OEM) -->
<svg xmlns="http://www.w3.org/2000/svg" xml:space="preserve" width="802px" height="75px" version="1.1" shape-rendering="geometricPrecision" text-rendering="geometricPrecision" image-rendering="optimizeQuality" fill-rule="evenodd" clip-rule="evenodd"
viewBox="0 0 802 75.42"
 xmlns:xlink="http://www.w3.org/1999/xlink"
 xmlns:xodm="http://www.corel.com/coreldraw/odm/2003">
 <g id="Camada_x0020_1">
  <metadata id="CorelCorpID_0Corel-Layer"/>
  <path fill="#4B4B4D" stroke="#373435" stroke-width="2.36" stroke-miterlimit="22.9256" d="M1.18 37.71l0 29.46 0 0.15 0.01 0.16 0.01 0.16 0.02 0.16 0.02 0.16 0.03 0.17 0.03 0.16 0.04 0.16 0.04 0.17 0.05 0.16 0.06 0.17 0.06 0.16 0.06 0.17 0.08 0.16 0.07 0.17 0.09 0.16 0.09 0.16 0.09 0.16 0.1 0.17 0.11 0.15 0.11 0.16 0.12 0.16 0.13 0.15 0.13 0.16 0.13 0.15 0.14 0.15 0.15 0.14 0.15 0.14 0.16 0.14 0.16 0.14 0.17 0.14 0.17 0.13 0.17 0.13 0.18 0.12 0.19 0.12 0.19 0.12 0.19 0.11 0.19 0.11 0.2 0.11 0.21 0.1 0.2 0.09 0.21 0.1 0.21 0.09 0.21 0.08 0.21 0.08 0.22 0.07 0.22 0.08 0.21 0.06 0.22 0.06 0.22 0.06 0.22 0.06 0.23 0.05 0.22 0.04 0.22 0.04 0.22 0.04 0.22 0.03 0.22 0.03 0.22 0.02 0.22 0.02 0.21 0.02 0.22 0.01 0.21 0.01 0.22 0.01 0.21 0 18.23 0 0.21 0 0.21 -0.01 0.22 -0.01 0.21 -0.01 0.22 -0.02 0.22 -0.02 0.22 -0.02 0.22 -0.03 0.22 -0.03 0.22 -0.04 0.22 -0.04 0.22 -0.04 0.22 -0.05 0.22 -0.06 0.22 -0.06 0.22 -0.06 0.22 -0.06 0.22 -0.08 0.21 -0.07 0.22 -0.08 0.21 -0.08 0.21 -0.09 0.21 -0.1 0.2 -0.09 0.2 -0.1 0.2 -0.11 0.2 -0.11 0.19 -0.11 0.19 -0.12 0.18 -0.12 0.18 -0.12 0.18 -0.13 0.17 -0.13 0.17 -0.14 0.16 -0.14 0.15 -0.14 0.16 -0.14 0.14 -0.14 0.14 -0.15 0.14 -0.15 0.13 -0.16 0.12 -0.15 0.12 -0.16 0.12 -0.16 0.1 -0.15 0.1 -0.17 0.1 -0.16 0.09 -0.16 0.08 -0.16 0.08 -0.17 0.07 -0.16 0.07 -0.17 0.06 -0.16 0.05 -0.17 0.05 -0.16 0.05 -0.17 0.04 -0.16 0.03 -0.16 0.02 -0.17 0.03 -0.16 0.01 -0.16 0.02 -0.16 0 -0.16 0 -0.15 0 -1.5c0,-0.92 0.44,-1.81 1.21,-2.46 0.77,-0.65 1.82,-1.02 2.91,-1.02l742.51 0c4.2,0 8.22,-1.42 11.18,-3.93 2.97,-2.52 4.63,-5.91 4.63,-9.46l0 -11.09 0 -11.09c0,-3.55 -1.67,-6.96 -4.64,-9.47 -2.97,-2.51 -6.97,-3.92 -11.17,-3.92l-742.51 0c-1.09,0 -2.14,-0.36 -2.91,-1.02 -0.77,-0.65 -1.2,-1.54 -1.21,-2.46l0 -1.5 0 -0.15 0 -0.16 -0.02 -0.16 -0.01 -0.16 -0.03 -0.16 -0.02 -0.17 -0.03 -0.16 -0.04 -0.16 -0.05 -0.17 -0.05 -0.16 -0.05 -0.17 -0.06 -0.16 -0.07 -0.17 -0.07 -0.16 -0.08 -0.17 -0.08 -0.16 -0.09 -0.16 -0.1 -0.16 -0.1 -0.17 -0.1 -0.15 -0.12 -0.16 -0.12 -0.16 -0.12 -0.15 -0.13 -0.16 -0.14 -0.15 -0.14 -0.15 -0.14 -0.14 -0.16 -0.14 -0.15 -0.14 -0.16 -0.14 -0.17 -0.14 -0.17 -0.13 -0.18 -0.13 -0.18 -0.12 -0.18 -0.12 -0.19 -0.12 -0.19 -0.11 -0.2 -0.11 -0.2 -0.11 -0.2 -0.1 -0.2 -0.09 -0.21 -0.1 -0.21 -0.08 -0.21 -0.09 -0.22 -0.08 -0.21 -0.07 -0.22 -0.08 -0.22 -0.06 -0.22 -0.06 -0.22 -0.06 -0.22 -0.06 -0.22 -0.05 -0.22 -0.04 -0.22 -0.04 -0.22 -0.04 -0.22 -0.03 -0.22 -0.03 -0.22 -0.02 -0.22 -0.02 -0.22 -0.02 -0.21 -0.01 -0.22 -0.01 -0.21 -0.01 -0.21 0 -18.23 0 -0.21 0 -0.22 0.01 -0.21 0.01 -0.22 0.01 -0.21 0.02 -0.22 0.02 -0.22 0.02 -0.22 0.03 -0.22 0.03 -0.22 0.04 -0.22 0.04 -0.22 0.04 -0.23 0.05 -0.22 0.06 -0.22 0.06 -0.22 0.06 -0.21 0.06 -0.22 0.08 -0.22 0.07 -0.21 0.08 -0.21 0.09 -0.21 0.08 -0.21 0.1 -0.2 0.09 -0.21 0.1 -0.2 0.11 -0.19 0.11 -0.19 0.11 -0.19 0.12 -0.19 0.12 -0.18 0.12 -0.17 0.13 -0.17 0.13 -0.17 0.14 -0.16 0.14 -0.16 0.14 -0.15 0.14 -0.15 0.14 -0.14 0.15 -0.13 0.15 -0.13 0.16 -0.13 0.15 -0.12 0.16 -0.11 0.16 -0.11 0.15 -0.1 0.17 -0.09 0.16 -0.09 0.16 -0.09 0.16 -0.07 0.17 -0.08 0.16 -0.06 0.17 -0.06 0.16 -0.06 0.17 -0.05 0.16 -0.04 0.17 -0.04 0.16 -0.03 0.16 -0.03 0.17 -0.02 0.16 -0.02 0.16 -0.01 0.16 -0.01 0.16 0 0.15 0 29.46zm148.13 0c0,2.19 -1.77,3.97 -3.96,3.97 -2.18,0 -3.95,-1.78 -3.95,-3.97 0,-2.19 1.77,-3.97 3.95,-3.97 2.19,0 3.96,1.78 3.96,3.97zm-23.72 0c0,2.19 -1.76,3.97 -3.95,3.97 -2.18,0 -3.95,-1.78 -3.95,-3.97 0,-2.19 1.77,-3.97 3.95,-3.97 2.19,0 3.95,1.78 3.95,3.97zm-23.71 0c0,2.19 -1.77,3.97 -3.95,3.97 -2.18,0 -3.95,-1.78 -3.95,-3.97 0,-2.19 1.77,-3.97 3.95,-3.97 2.18,0 3.95,1.78 3.95,3.97zm-23.71 0c0,2.19 -1.77,3.97 -3.95,3.97 -2.18,0 -3.95,-1.78 -3.95,-3.97 0,-2.19 1.77,-3.97 3.95,-3.97 2.18,0 3.95,1.78 3.95,3.97zm-23.71 0c0,2.19 -1.77,3.97 -3.95,3.97 -2.18,0 -3.95,-1.78 -3.95,-3.97 0,-2.19 1.77,-3.97 3.95,-3.97 2.18,0 3.95,1.78 3.95,3.97zm118.56 0c0,2.19 -1.77,3.97 -3.96,3.97 -2.18,0 -3.95,-1.78 -3.95,-3.97 0,-2.19 1.77,-3.97 3.95,-3.97 2.19,0 3.96,1.78 3.96,3.97zm23.71 0c0,2.19 -1.77,3.97 -3.96,3.97 -2.18,0 -3.95,-1.78 -3.95,-3.97 0,-2.19 1.77,-3.97 3.95,-3.97 2.19,0 3.96,1.78 3.96,3.97zm-182.9 0l0 -25.41 11.91 0 0 25.41 0 25.41 -11.91 0 0 -25.41zm206.61 0c0,2.19 -1.77,3.97 -3.95,3.97 -2.19,0 -3.96,-1.78 -3.96,-3.97 0,-2.19 1.77,-3.97 3.96,-3.97 2.18,0 3.95,1.78 3.95,3.97zm23.71 0c0,2.19 -1.77,3.97 -3.95,3.97 -2.19,0 -3.96,-1.78 -3.96,-3.97 0,-2.19 1.77,-3.97 3.96,-3.97 2.18,0 3.95,1.78 3.95,3.97z"/>
  <path fill="#4B4B4D" stroke="#727376" stroke-width="0.9" stroke-miterlimit="22.9256" d="M382.03 37.71c0,10.53 8.49,19.06 18.97,19.06 10.48,0 18.97,-8.53 18.97,-19.06 0,-10.53 -8.49,-19.06 -18.97,-19.06 -10.48,0 -18.97,8.53 -18.97,19.06z"/>
  <path fill="#4B4B4D" stroke="#727376" stroke-width="0.9" stroke-miterlimit="22.9256" d="M396.26 37.71c0,2.63 2.12,4.76 4.74,4.76 2.62,0 4.74,-2.13 4.74,-4.76 0,-2.63 -2.12,-4.77 -4.74,-4.77 -2.62,0 -4.74,2.14 -4.74,4.77z"/>
  <polygon fill="#4B4B4D" stroke="#F06792" stroke-width="0.9" stroke-miterlimit="22.9256" points="283.43,13.23 518.56,13.23 518.56,62.19 283.43,62.19 "/>
 </g>
</svg>
