<svg xmlns="http://www.w3.org/2000/svg" xml:space="preserve" width="2979" height="274" style="shape-rendering:geometricPrecision;text-rendering:geometricPrecision;image-rendering:optimizeQuality;fill-rule:evenodd;clip-rule:evenodd" viewBox="0 0 2695.9 248.25"><defs><style>.str1{stroke:#727376;stroke-width:.81;stroke-miterlimit:22.9256}.fil0{fill:none}</style></defs><g id="Camada_x0020_1"><path d="M1.07 124.13v99.23l.01.53.02.53.04.54.06.54.07.54.09.55.11.55.13.55.15.56.16.55.19.56.2.55.22.56.25.55.26.56.28.55.3.55.33.54.34.54.36.54.38.53.4.53.42.52.44.52.45.5.48.5.49.49.51.48.53.48.55.46.56.45.58.44.59.44.61.41.62.41.63.4.65.38.66.36.67.36.68.34.68.33.7.31.71.3.71.28.72.27.73.26.73.24.74.22.74.21.74.2.74.18.75.16.74.16.75.13.74.13.74.11.75.09.73.08.74.07.73.06.72.04.72.03.72.02h62.85l.72-.02.72-.03.72-.04.73-.06.74-.07.73-.08.74-.09.75-.11.74-.13.75-.13.74-.16.75-.16.74-.18.74-.2.74-.21.74-.22.73-.24.72-.26.73-.27.71-.28.71-.3.69-.31.69-.33.68-.34.67-.36.66-.36.65-.38.63-.4.62-.41.61-.41.59-.44.58-.44.56-.45.55-.46.53-.48.51-.48.49-.49.48-.5.45-.5.44-.52.42-.52.4-.53.38-.53.36-.54.34-.54.33-.54.3-.55.28-.55.26-.56.25-.55.22-.56.2-.55.19-.56.16-.55.15-.56.13-.55.11-.55.09-.55.07-.54.06-.54.04-.54.02-.53.01-.53v-5.04c0-3.11 1.46-6.1 4.05-8.3 2.59-2.19 6.13-3.43 9.8-3.43h2501.33c14.13-.01 27.68-4.77 37.67-13.24s15.59-19.9 15.58-31.87v-74.7c-.01-11.98-5.63-23.45-15.63-31.91s-23.49-13.21-37.62-13.2H140.25c-3.67 0-7.19-1.23-9.79-3.43s-4.06-5.19-4.06-8.3V24.9l-.01-.53-.02-.54-.04-.53-.06-.55-.07-.54-.09-.55-.11-.55-.13-.55-.15-.55-.16-.56-.19-.55-.2-.56-.22-.56-.25-.55-.26-.55-.28-.55-.3-.55-.33-.55-.34-.54-.36-.54-.38-.53-.4-.53-.42-.52-.44-.51-.45-.51-.48-.5-.49-.49-.51-.48-.53-.47-.55-.47-.56-.45-.58-.44-.59-.43-.61-.42-.62-.41-.63-.39-.65-.38-.66-.37-.67-.36-.68-.34-.69-.32-.69-.32-.71-.3-.71-.28-.73-.27-.72-.25-.73-.24-.74-.23-.74-.21-.74-.19-.74-.18-.75-.17-.74-.15-.75-.14-.74-.12-.75-.11-.74-.1-.73-.08-.74-.07-.73-.05-.72-.05-.72-.03-.72-.01-.71-.01H33.02l-.71.01-.72.01-.72.03-.72.05-.73.05-.74.07-.73.08-.75.1-.74.11-.74.12-.75.14-.74.15-.75.17-.74.18-.74.19-.74.21-.74.23-.73.24-.73.25-.72.27-.71.28-.71.3-.7.32-.68.32-.68.34-.67.36-.66.37-.65.38-.63.39-.62.41-.61.42-.59.43-.58.44-.56.45-.55.47-.53.47-.51.48-.49.49-.48.5-.45.51-.44.51-.42.52-.4.53-.38.53-.36.54-.34.54-.33.55-.3.55-.28.55-.26.55-.25.55-.22.56-.2.56-.19.55-.16.56-.15.55-.13.55-.11.55-.09.55-.07.54-.06.55-.04.53-.02.54-.01.53zm498.99-.01c0 7.39-5.96 13.38-13.31 13.38s-13.31-5.99-13.31-13.38c0-7.38 5.96-13.37 13.31-13.37s13.31 5.99 13.31 13.37zm-79.87 0c0 7.39-5.96 13.38-13.32 13.38-7.35 0-13.31-5.99-13.31-13.38 0-7.38 5.96-13.37 13.31-13.37 7.36 0 13.32 5.99 13.32 13.37zm-79.88 0c0 7.39-5.96 13.38-13.31 13.38s-13.31-5.99-13.31-13.38c0-7.38 5.96-13.37 13.31-13.37s13.31 5.99 13.31 13.37zm-79.87 0c0 7.39-5.96 13.38-13.32 13.38-7.35 0-13.31-5.99-13.31-13.38 0-7.38 5.96-13.37 13.31-13.37 7.36 0 13.32 5.99 13.32 13.37zm-79.88 0c0 7.39-5.96 13.38-13.31 13.38s-13.31-5.99-13.31-13.38c0-7.38 5.96-13.37 13.31-13.37s13.31 5.99 13.31 13.37zm399.38 0c0 7.39-5.97 13.38-13.32 13.38s-13.31-5.99-13.31-13.38c0-7.38 5.96-13.37 13.31-13.37s13.32 5.99 13.32 13.37zm79.87 0c0 7.39-5.96 13.38-13.31 13.38s-13.31-5.99-13.31-13.38c0-7.38 5.96-13.37 13.31-13.37s13.31 5.99 13.31 13.37zm-616.14 0v-85.6H83.8v171.21H43.67zm696.01 0c0 7.39-5.96 13.38-13.31 13.38s-13.31-5.99-13.31-13.38c0-7.38 5.96-13.37 13.31-13.37s13.31 5.99 13.31 13.37zm79.88 0c0 7.39-5.96 13.38-13.31 13.38s-13.32-5.99-13.32-13.38c0-7.38 5.97-13.37 13.32-13.37s13.31 5.99 13.31 13.37z" class="fil0" style="stroke:#373435;stroke-width:2.14;stroke-miterlimit:22.9256"/><path d="M2535.08 124.13c0 35.46 28.61 64.2 63.9 64.2s63.9-28.74 63.9-64.2-28.61-64.21-63.9-64.21-63.9 28.75-63.9 64.21z" class="fil0 str1"/><path d="M2583.01 124.12c0 8.87 7.15 16.06 15.97 16.06s15.98-7.19 15.98-16.06c0-8.86-7.16-16.05-15.98-16.05s-15.97 7.19-15.97 16.05z" class="fil0 str1"/><path d="M943.02 41.67h792.09v164.92H943.02z" class="fil0" style="stroke:#f06792;stroke-width:.81;stroke-miterlimit:22.9256"/></g></svg>